<svg width="70" height="41" viewBox="0 0 70 41" fill="none" xmlns="http://www.w3.org/2000/svg">
<g clip-path="url(#clip0_4302_11)">
<path fill-rule="evenodd" clip-rule="evenodd" d="M0.283301 17.4073L8.61522 28.9124C8.74534 29.0924 8.91405 29.2385 9.108 29.3391C9.30196 29.4398 9.51584 29.4922 9.73269 29.4922C9.94955 29.4922 10.1634 29.4398 10.3574 29.3391C10.5513 29.2385 10.7201 29.0924 10.8502 28.9124L18.1724 18.8012C18.8317 17.8902 18.2686 16.5841 17.1746 16.4864L1.5205 15.0929C0.316426 14.9856 -0.442255 16.406 0.283301 17.4073Z" fill="#005FFF"/>
<path fill-rule="evenodd" clip-rule="evenodd" d="M0.283301 17.4073L8.61522 28.9124C8.74534 29.0924 8.91405 29.2385 9.108 29.3391C9.30196 29.4398 9.51584 29.4922 9.73269 29.4922C9.94955 29.4922 10.1634 29.4398 10.3574 29.3391C10.5513 29.2385 10.7201 29.0924 10.8502 28.9124L18.1724 18.8012C18.8317 17.8902 18.2686 16.5841 17.1746 16.4864L1.5205 15.0929C0.316426 14.9856 -0.442255 16.406 0.283301 17.4073Z" fill="url(#paint0_linear_4302_11)"/>
<path fill-rule="evenodd" clip-rule="evenodd" d="M52.4431 17.3637L37.2927 38.2843C36.601 39.2396 37.2579 40.6033 38.4101 40.6033H51.627C51.9058 40.6033 52.1808 40.5359 52.4301 40.4065C52.6795 40.2771 52.8964 40.0893 53.0637 39.8579L69.2894 17.4548C70.0205 16.4456 69.2447 15.0165 68.0338 15.142L53.7023 16.6286C53.4548 16.654 53.2151 16.7325 52.9983 16.859C52.7816 16.9855 52.5925 17.1574 52.4431 17.3637Z" fill="#005FFF"/>
<path fill-rule="evenodd" clip-rule="evenodd" d="M52.4431 17.3637L37.2927 38.2843C36.601 39.2396 37.2579 40.6033 38.4101 40.6033H51.627C51.9058 40.6033 52.1808 40.5359 52.4301 40.4065C52.6795 40.2771 52.8964 40.0893 53.0637 39.8579L69.2894 17.4548C70.0205 16.4456 69.2447 15.0165 68.0338 15.142L53.7023 16.6286C53.4548 16.654 53.2151 16.7325 52.9983 16.859C52.7816 16.9855 52.5925 17.1574 52.4431 17.3637Z" fill="url(#paint1_linear_4302_11)"/>
<path fill-rule="evenodd" clip-rule="evenodd" d="M48.2634 17.5366L32.0358 39.9463C31.8675 40.1791 31.6489 40.3678 31.3977 40.4973C31.1465 40.6267 30.8695 40.6933 30.589 40.6917L17.97 40.6089C17.6937 40.6072 17.4216 40.5394 17.1747 40.4108C16.9277 40.2821 16.7128 40.0961 16.5465 39.8672L12.5631 34.3894C12.3283 34.0666 12.201 33.6733 12.2006 33.2688C12.2002 32.8644 12.3265 32.4708 12.5607 32.1474L35.005 1.155C35.1717 0.92479 35.3876 0.737798 35.6357 0.608703C35.8838 0.479608 36.1573 0.411923 36.4348 0.41096C36.7123 0.409997 36.9863 0.475782 37.2352 0.603152C37.4841 0.730523 37.7012 0.916014 37.8693 1.14507L48.2554 15.2863C48.4929 15.6092 48.6223 16.0039 48.6237 16.4101C48.6252 16.8163 48.4986 17.2119 48.2634 17.5366Z" fill="#005FFF"/>
<path fill-rule="evenodd" clip-rule="evenodd" d="M48.2634 17.5366L32.0358 39.9463C31.8675 40.1791 31.6489 40.3678 31.3977 40.4973C31.1465 40.6267 30.8695 40.6933 30.589 40.6917L17.97 40.6089C17.6937 40.6072 17.4216 40.5394 17.1747 40.4108C16.9277 40.2821 16.7128 40.0961 16.5465 39.8672L12.5631 34.3894C12.3283 34.0666 12.201 33.6733 12.2006 33.2688C12.2002 32.8644 12.3265 32.4708 12.5607 32.1474L35.005 1.155C35.1717 0.92479 35.3876 0.737798 35.6357 0.608703C35.8838 0.479608 36.1573 0.411923 36.4348 0.41096C36.7123 0.409997 36.9863 0.475782 37.2352 0.603152C37.4841 0.730523 37.7012 0.916014 37.8693 1.14507L48.2554 15.2863C48.4929 15.6092 48.6223 16.0039 48.6237 16.4101C48.6252 16.8163 48.4986 17.2119 48.2634 17.5366Z" fill="url(#paint2_linear_4302_11)"/>
</g>
<defs>
<linearGradient id="paint0_linear_4302_11" x1="-70.72" y1="-52.667" x2="-91.5657" y2="-12.4432" gradientUnits="userSpaceOnUse">
<stop offset="0.177786" stop-color="#B38AF8"/>
<stop offset="0.563822" stop-color="#005FFF"/>
<stop offset="1" stop-color="#00ECBB"/>
</linearGradient>
<linearGradient id="paint1_linear_4302_11" x1="-87.7735" y1="-104.659" x2="-127.644" y2="-28.0766" gradientUnits="userSpaceOnUse">
<stop offset="0.177786" stop-color="#B38AF8"/>
<stop offset="0.563822" stop-color="#005FFF"/>
<stop offset="1" stop-color="#00ECBB"/>
</linearGradient>
<linearGradient id="paint2_linear_4302_11" x1="-127.375" y1="-189.05" x2="-199.984" y2="-93.9801" gradientUnits="userSpaceOnUse">
<stop offset="0.177786" stop-color="#B38AF8"/>
<stop offset="0.563822" stop-color="#005FFF"/>
<stop offset="1" stop-color="#00ECBB"/>
</linearGradient>
<clipPath id="clip0_4302_11">
<rect width="69.5736" height="40.2775" fill="white" transform="translate(-4.57764e-05 0.412903)"/>
</clipPath>
</defs>
</svg>
